<svg xmlns="http://www.w3.org/2000/svg" version="1.0" width="402.3606557761493" height="439.0819673284477" preserveAspectRatio="xMidYMid meet" style=""><rect id="backgroundrect" width="100%" height="100%" x="0" y="0" fill="none" stroke="none" class="" style=""/>
<metadata>
Created by potrace 1.15, written by Peter Selinger 2001-2017
</metadata>

<g class="currentLayer" style=""><title>Layer 1</title><g transform="translate(0,530) scale(0.10000000149011612,-0.10000000149011612) " fill="#000000" stroke="none" id="svg_1" class="">
<path d="M336.20795330957174,5273.088479579349 c-19.031226041539938,-15.089867922764029 -26.0427303726336,-29.173744650677122 -26.0427303726336,-56.335506911652374 c0,-39.233656599186475 -5.008217379352615,-30.179735845528057 256.4207298228539,-481.869782333598 c90.14791282834707,-155.92863520189496 166.27281699450683,-289.72546411706935 170.27939089798892,-298.77938487072777 c3.004930427611569,-10.059911948509352 -19.031226041539938,-46.27559496314302 -64.10518245571348,-100.59911948509352 c-143.23501704948478,-176.04845909891367 -227.37306902260872,-355.11489178238014 -268.4404515333002,-567.3790338959275 c-20.03286951741046,-106.63506665419914 -20.03286951741046,-998.9492564869787 0,-1075.40458729565 c81.13312154551237,-307.8333056243862 416.6836859621376,-551.2831747783125 897.4725543799887,-651.882294263406 c233.38292987783188,-49.29356854769583 370.60808607209356,-61.36546288590705 716.175085247424,-60.359471691056115 c349.57357307881256,0 530.8710422113772,17.1018503124659 748.2276764752808,68.4074012498636 c450.7395641417354,107.64105784905007 739.212885192446,313.8692527934918 850.3953110140741,609.6306640796668 l24.039443420892553,65.38942766531079 l0,497.96564145121295 c0,482.8757735284489 -1.001643475870523,500.98361503576575 -23.03779994502203,589.510840182648 c-52.0854607452672,215.28211569810014 -145.23830400122586,398.37251316097036 -276.45359934026436,544.241236414356 l-56.09203464874929,61.36546288590705 l128.21036491142695,225.3420276466095 c71.11668678680714,122.7309257718141 168.27610394624787,291.7374465067712 216.35499078803298,375.23471567939885 c101.16599106292283,172.02449431950993 112.18406929749858,211.2581509186964 73.11997373854818,250.49180751788288 c-30.04930427611569,30.179735845528057 -72.11833026267766,34.2037006249318 -103.16927801466387,8.047929558807482 c-11.018078234575754,-9.053920753658417 -48.078886841785106,-64.38343647045986 -81.13312154551237,-122.7309257718141 c-102.16763453879335,-178.06044148861554 -355.58343393403567,-618.6845848333252 -357.58672088577674,-620.696567223027 c-1.001643475870523,-1.0059911948509352 -31.050947751986214,16.095859117614964 -66.10846940745452,39.233656599186475 c-299.4913992852864,191.1383270216777 -696.1422157300135,281.67753455826187 -1165.9130059132888,266.58766663549784 c-217.35663426390352,-7.041938363956547 -322.52919923030845,-20.119823897018705 -481.7905118937216,-57.34149810650331 c-192.31554736714043,-46.27559496314302 -374.6146599755756,-120.71894338211223 -503.8266683628731,-206.22819494444173 c-30.04930427611569,-19.11383270216777 -59.09696507636086,-35.20969181978273 -65.106825931584,-35.20969181978273 c-7.011504331093661,0 -45.07395641417354,58.347489301354244 -85.13969544899446,128.7668729409197 c-236.38786030544344,416.4803546682872 -335.5505644166252,583.4748930135424 -357.58672088577674,603.5947169105611 c-32.05259122785674,28.167753455826187 -65.106825931584,28.167753455826187 -99.16270411118178,1.0059911948509352 zm1930.166978002498,-607.6186816899649 c240.39443420892553,-21.12581509186964 409.67218163104394,-63.37744527560892 583.9581464325149,-145.8687232533856 c122.20050405620381,-57.34149810650331 202.33198212584566,-110.65903143360288 291.4782514783222,-194.1563006062305 c162.26624309102473,-152.91066161734216 252.4141559193718,-306.82731442953525 315.51769489921475,-540.2172716349522 c22.036156469151507,-83.49726917262763 23.03779994502203,-96.57515470568978 23.03779994502203,-563.3550691165237 l0,-477.84581755419424 l-36.05916513133883,-76.45533080867108 c-89.14626935247655,-187.11436224227396 -290.4766080024517,-334.99506788536144 -574.9433551496802,-423.52229303224374 c-239.392790733055,-74.44334841896921 -480.78886841785106,-102.6111018747954 -861.4133892486498,-102.6111018747954 c-313.5144079474737,1.0059911948509352 -428.70340767258386,10.059911948509352 -655.074833219322,55.32951571680144 c-396.6508164447271,79.47330439322388 -660.0830505986747,243.44986915392633 -770.2638329444322,479.8577999438961 l-27.044373848504122,57.34149810650331 l-3.004930427611569,452.69603768292086 c-3.004930427611569,557.3191219474181 4.006573903482092,618.6845848333252 103.16927801466387,821.8948061932141 c114.18735624923963,231.3779748157151 270.4437384850412,388.312601212461 500.8217379352615,500.98361503576575 c196.32212127062252,96.57515470568978 371.60972954796404,137.82079369457813 701.1504331093661,163.97656476070244 c103.16927801466387,9.053920753658417 254.41744287111285,6.0359471691056115 408.6705381551734,-8.047929558807482 z" id="svg_2"/>
<path d="M1283.7626814830865,3804.3413350969836 c-113.1857127733691,-19.11383270216777 -271.44538196091173,-112.67101382330475 -347.5702861270715,-206.22819494444173 c-184.30239956017624,-228.3600012311623 -187.3073299877878,-552.2891659731634 -5.008217379352615,-779.6431760094748 c75.12326069028923,-94.56317231598791 173.2843213256005,-161.96458237100057 300.4930427611569,-206.22819494444173 c52.0854607452672,-18.107841507316834 93.15284325595864,-19.11383270216777 781.2819111790079,-19.11383270216777 c683.1208505436967,0 729.1964504337408,1.0059911948509352 781.2819111790079,19.11383270216777 c222.36485164325612,75.44933961382014 373.6130164997051,234.3959484002679 426.70012072084285,448.6720729035171 c12.019721710446277,49.29356854769583 15.024652138057846,91.54519873143511 11.018078234575754,171.018503124659 c-7.011504331093661,145.8687232533856 -47.07724336591458,253.50978110243568 -131.2152953390385,358.13286536693295 c-83.13640849725341,103.61709306964633 -235.3862168295729,195.16229180108144 -357.58672088577674,215.28211569810014 c-79.12983459377132,12.071894338211223 -1382.2679967013219,12.071894338211223 -1459.394544343352,-1.0059911948509352 zm221.3632081673856,-377.2466980691007 c151.24816485644897,-76.45533080867108 189.31061693952887,-268.5996490251997 77.12654764203027,-389.31859240731194 c-113.1857127733691,-124.74290816151597 -321.5275557544379,-92.55118992628604 -396.6508164447271,59.35348049620518 c-13.0213651863168,27.16176226097525 -19.031226041539938,61.36546288590705 -19.031226041539938,109.65304023875194 c0,58.347489301354244 5.008217379352615,78.46731319837295 27.044373848504122,116.69497860270849 c27.044373848504122,46.27559496314302 77.12654764203027,91.54519873143511 120.19721710446277,109.65304023875194 c39.0640955589504,15.089867922764029 156.2563822358016,12.071894338211223 191.3139038912699,-6.0359471691056115 zm1212.9902492792035,6.0359471691056115 c38.062452083079876,-14.083876727913093 105.17256496640492,-79.47330439322388 129.2120083872975,-124.74290816151597 c29.04766080024517,-56.335506911652374 29.04766080024517,-156.9346263967459 0,-212.26414211354734 c-94.15448673182917,-181.07841507316834 -340.55878179597784,-181.07841507316834 -436.71655547954805,0 c-33.05423470372726,62.371454080757985 -31.050947751986214,165.98854715040432 5.008217379352615,227.35401003631137 c27.044373848504122,46.27559496314302 77.12654764203027,91.54519873143511 120.19721710446277,109.65304023875194 c31.050947751986214,12.071894338211223 150.24652138057846,12.071894338211223 182.2991126084352,0 z" id="svg_3"/>
<path d="M1363.8941595527285,3275.1899666053914 c-15.024652138057846,-6.0359471691056115 -42.06902598656197,-56.335506911652374 -42.06902598656197,-77.46132200352201 c0,-8.047929558807482 12.019721710446277,-28.167753455826187 26.0427303726336,-45.269603768292086 c32.05259122785674,-38.22766540433554 71.11668678680714,-41.245638988888345 108.17749539401649,-6.0359471691056115 c67.11011288332504,62.371454080757985 -4.006573903482092,163.97656476070244 -92.15119978008812,128.7668729409197 z" id="svg_4"/>
<path d="M2574.8811218801907,3265.1300546568823 c-11.018078234575754,-10.059911948509352 -24.039443420892553,-32.19171823522993 -27.044373848504122,-50.29955974254676 c-5.008217379352615,-27.16176226097525 -1.001643475870523,-37.221674209484604 24.039443420892553,-63.37744527560892 c36.05916513133883,-35.20969181978273 69.11339983506609,-38.22766540433554 106.17420844227544,-9.053920753658417 c55.09039117287877,44.26361257344115 21.034512993280984,139.83277608428 -51.083817269396675,139.83277608428 c-17.027939089798892,0 -40.06573903482092,-8.047929558807482 -52.0854607452672,-17.1018503124659 z" id="svg_5"/>
<path d="M3655.654432344485,1722.9455529503985 c0,-6.0359471691056115 -30.04930427611569,-82.49127797777669 -66.10846940745452,-169.00652073495712 c-63.10353897984295,-150.8986792276403 -88.14462587660603,-210.25215972384547 -203.33362560171616,-492.93568547695827 c-28.046017324374645,-68.4074012498636 -51.083817269396675,-128.7668729409197 -51.083817269396675,-133.7968289151744 c0,-6.0359471691056115 29.04766080024517,-9.053920753658417 66.10846940745452,-7.041938363956547 l65.106825931584,3.0179735845528057 l32.05259122785674,80.47929558807482 l33.05423470372726,80.47929558807482 l135.2218692425206,3.0179735845528057 l134.2202257666501,3.0179735845528057 l34.055878179597784,-86.51524275718043 l33.05423470372726,-85.5092515623295 l69.11339983506609,0 l69.11339983506609,0 l-16.02629561392837,38.22766540433554 c-9.014791282834707,20.119823897018705 -18.029582565669415,44.26361257344115 -21.034512993280984,52.31154213224863 c-4.006573903482092,8.047929558807482 -47.07724336591458,112.67101382330475 -96.15777368357021,231.3779748157151 c-121.19886058033329,292.74343770162216 -187.3073299877878,453.7020288777718 -194.31883431888147,475.83383516449237 c-6.009860855223138,18.107841507316834 -23.03779994502203,24.143788676422446 -23.03779994502203,7.041938363956547 zm56.09203464874929,-409.43841630433064 c21.034512993280984,-53.31753332709957 41.067382510691445,-101.60511067994446 42.06902598656197,-105.6290754593482 c2.003286951741046,-4.023964779403741 -35.05752165546831,-8.047929558807482 -82.13476502138289,-8.047929558807482 c-50.08217379352615,0 -86.14133892486498,4.023964779403741 -86.14133892486498,10.059911948509352 c0,17.1018503124659 73.11997373854818,201.19823897018705 80.13147806964184,201.19823897018705 c4.006573903482092,0 25.041086896763076,-44.26361257344115 46.07559989004406,-97.58114590054072 z" id="svg_6"/>
<path d="M2618.953434818494,1709.8676674173364 c-3.004930427611569,-6.0359471691056115 -4.006573903482092,-186.10837104742302 -3.004930427611569,-399.3785043558213 l3.004930427611569,-387.30661001761007 l58.09532160049034,-3.0179735845528057 l57.093678124619814,-3.0179735845528057 l0,236.40793078996978 c0,129.77286413577065 4.006573903482092,238.41991317967165 9.014791282834707,241.43788676422446 c5.008217379352615,3.0179735845528057 49.08053031765563,-38.22766540433554 97.15941715944074,-92.55118992628604 c49.08053031765563,-53.31753332709957 94.15448673182917,-102.6111018747954 99.16270411118178,-108.647049043901 c6.009860855223138,-6.0359471691056115 68.11175635919557,-74.44334841896921 140.23008662187323,-152.91066161734216 c71.11668678680714,-78.46731319837295 133.21858229077958,-142.8507496688328 137.22515619426167,-142.8507496688328 c5.008217379352615,0 7.011504331093661,180.0724238783174 6.009860855223138,400.3844955506722 l-3.004930427611569,399.3785043558213 l-57.093678124619814,3.0179735845528057 l-58.09532160049034,3.0179735845528057 l0,-236.40793078996978 c0,-131.78484652547252 -4.006573903482092,-238.41991317967165 -9.014791282834707,-241.43788676422446 c-5.008217379352615,-4.023964779403741 -24.039443420892553,11.065903143360288 -43.07066946243249,32.19171823522993 c-74.1216172144187,86.51524275718043 -420.6902598656197,464.7679320211321 -424.6968337691018,464.7679320211321 c-3.004930427611569,0 -7.011504331093661,-6.0359471691056115 -9.014791282834707,-13.077885533062158 z" id="svg_7"/>
<path d="M13.678754079263342,1688.7418523254667 c-3.004930427611569,-7.041938363956547 -4.006573903482092,-33.19770943008086 -2.003286951741046,-57.34149810650331 l3.004930427611569,-44.26361257344115 l102.16763453879335,-3.0179735845528057 l103.16927801466387,-3.0179735845528057 l2.003286951741046,-328.9591207162558 l3.004930427611569,-328.9591207162558 l60.09860855223138,0 l60.09860855223138,0 l3.004930427611569,328.9591207162558 l2.003286951741046,328.9591207162558 l103.16927801466387,3.0179735845528057 l102.16763453879335,3.0179735845528057 l0,55.32951571680144 l0,55.32951571680144 l-268.4404515333002,3.0179735845528057 c-222.36485164325612,2.0119823897018705 -268.4404515333002,0 -273.4486689126528,-12.071894338211223 z" id="svg_8"/>
<path d="M670.7568742503265,1310.489163061515 l0,-392.33656599186475 l230.3779994502203,0 l230.3779994502203,0 l0,55.32951571680144 l0,55.32951571680144 l-167.27446047037733,2.0119823897018705 l-168.27610394624787,3.0179735845528057 l-3.004930427611569,117.70096979755942 l-3.004930427611569,117.70096979755942 l138.22679967013218,3.0179735845528057 l138.22679967013218,3.0179735845528057 l0,55.32951571680144 l0,55.32951571680144 l-137.22515619426167,3.0179735845528057 l-138.22679967013218,3.0179735845528057 l0,94.56317231598791 l0,95.56916351083885 l168.27610394624787,2.0119823897018705 l167.27446047037733,3.0179735845528057 l0,55.32951571680144 l0,55.32951571680144 l-227.37306902260872,3.0179735845528057 l-228.37471249847925,2.0119823897018705 l0,-392.33656599186475 z" id="svg_9"/>
<path d="M1278.7544641037339,1696.7897818842741 c-4.006573903482092,-4.023964779403741 -7.011504331093661,-181.07841507316834 -7.011504331093661,-393.3425571867157 l0,-385.2946276279082 l220.36156469151507,0 l220.36156469151507,0 l0,55.32951571680144 l0,54.3235245219505 l-157.25802571167213,3.0179735845528057 l-158.25966918754264,3.0179735845528057 l-5.008217379352615,331.97709430080863 l-5.008217379352615,331.97709430080863 l-50.08217379352615,3.0179735845528057 c-28.046017324374645,2.0119823897018705 -54.088747697008245,0 -58.09532160049034,-4.023964779403741 z" id="svg_10"/>
<path d="M1807.62221936337,1690.7538347151685 c-3.004930427611569,-7.041938363956547 -4.006573903482092,-183.09039746287021 -3.004930427611569,-390.3245836021629 l3.004930427611569,-377.2466980691007 l220.36156469151507,0 l220.36156469151507,0 l0,50.29955974254676 l0,50.29955974254676 l-160.2629561392837,5.029955974254676 l-160.2629561392837,5.029955974254676 l-5.008217379352615,331.97709430080863 l-5.008217379352615,331.97709430080863 l-53.08710422113772,3.0179735845528057 c-36.05916513133883,2.0119823897018705 -54.088747697008245,-1.0059911948509352 -57.093678124619814,-10.059911948509352 z" id="svg_11"/>
<path d="M2343.5014789541,1310.489163061515 l0,-393.3425571867157 l58.09532160049034,3.0179735845528057 l57.093678124619814,3.0179735845528057 l0,387.30661001761007 l0,387.30661001761007 l-57.093678124619814,3.0179735845528057 l-58.09532160049034,3.0179735845528057 l0,-393.3425571867157 z" id="svg_12"/>
</g></g></svg>