<svg xmlns="http://www.w3.org/2000/svg" width="85" height="81" style=""><rect id="backgroundrect" width="100%" height="100%" x="0" y="0" fill="none" stroke="none"/><title>bot2_open</title><g class="currentLayer" style=""><title>Layer 1</title><g fill="#000" fill-rule="evenodd" id="svg_1" class=""><path d="M12.284216403961182,51.284281730651855 C12.284216403961182,43.000010530651856 18.992330303961182,36.284281730651855 27.289297203961183,36.284281730651855 L57.27913560396118,36.284281730651855 C65.56621290396119,36.284281730651855 72.28421640396118,42.99818903065186 72.28421640396118,51.284281730651855 C72.28421640396118,59.56855293065186 65.57610250396118,66.28428173065186 57.27913560396118,66.28428173065186 L27.289297203961183,66.28428173065186 C19.002219903961183,66.28428173065186 12.284216403961182,59.57037443065185 12.284216403961182,51.284281730651855 zM27.28421640396118,57.284281730651855 C23.97050790396118,57.284281730651855 21.28421640396118,54.59799023065185 21.28421640396118,51.284281730651855 C21.28421640396118,47.97057323065186 23.97050790396118,45.284281730651855 27.28421640396118,45.284281730651855 C30.59792490396118,45.284281730651855 33.28421640396118,47.97057323065186 33.28421640396118,51.284281730651855 C33.28421640396118,54.59799023065185 30.59792490396118,57.284281730651855 27.28421640396118,57.284281730651855 zM57.28421640396118,57.284281730651855 C53.970507903961185,57.284281730651855 51.28421640396118,54.59799023065185 51.28421640396118,51.284281730651855 C51.28421640396118,47.97057323065186 53.970507903961185,45.284281730651855 57.28421640396118,45.284281730651855 C60.597924903961186,45.284281730651855 63.28421640396118,47.97057323065186 63.28421640396118,51.284281730651855 C63.28421640396118,54.59799023065185 60.597924903961186,57.284281730651855 57.28421640396118,57.284281730651855 z" id="svg_2"/><path d="M57.28421640396118,53.284281730651855 L57.28421640396118,53.284281730651855 C58.38878590396118,53.284281730651855 59.28421640396118,52.38885123065185 59.28421640396118,51.284281730651855 C59.28421640396118,50.17971223065186 58.38878590396118,49.284281730651855 57.28421640396118,49.284281730651855 C56.179646903961185,49.284281730651855 55.28421640396118,50.17971223065186 55.28421640396118,51.284281730651855 C55.28421640396118,52.38885123065185 56.179646903961185,53.284281730651855 57.28421640396118,53.284281730651855 L57.28421640396118,53.284281730651855 zM27.28421640396118,53.284281730651855 L27.28421640396118,53.284281730651855 C28.38878590396118,53.284281730651855 29.28421640396118,52.38885123065185 29.28421640396118,51.284281730651855 C29.28421640396118,50.17971223065186 28.38878590396118,49.284281730651855 27.28421640396118,49.284281730651855 C26.179646903961185,49.284281730651855 25.28421640396118,50.17971223065186 25.28421640396118,51.284281730651855 C25.28421640396118,52.38885123065185 26.179646903961185,53.284281730651855 27.28421640396118,53.284281730651855 L27.28421640396118,53.284281730651855 z" id="svg_3"/><path d="M73.42163220396118,21.624059830651856 C82.28421640396118,30.29958233065186 82.28421640396118,41.284281730651855 82.28421640396118,41.284281730651855 L82.28421640396118,61.284281730651855 C82.28421640396118,61.284281730651855 82.28421640396118,81.28428173065186 42.28421640396118,81.28428173065186 C2.2842164039611816,81.28428173065186 2.2842164039611816,61.284281730651855 2.2842164039611816,61.284281730651855 L2.2842164039611816,41.284281730651855 C2.2842164039611816,41.284281730651855 2.2842164039611816,30.288705630651855 11.159967003961182,21.611179430651855 L0.5533017539611809,3.286354230651856 C-1.3603881843238241e-7,2.3304308306518546 0.3262106339611819,1.1068585406518547 1.2819138939611818,0.5534291606518558 C2.237617163961181,-2.1934814498081323e-7 3.460907503961181,0.32628571065185596 4.014209403961182,1.2822091906518551 L14.254345403961182,18.973792330651854 C20.18007550396118,14.573554430651857 29.03929750396118,11.284281730651855 42.28421640396118,11.284281730651855 C55.539511903961184,11.284281730651855 64.40223600396118,14.578710330651855 70.32800940396118,18.984136330651857 L80.57649350396119,1.2822091906518551 C81.12992290396119,0.32628571065185596 82.35349510396118,-2.1934814498081323e-7 83.30941860396118,0.5534291606518558 C84.26534210396119,1.1068585406518547 84.59162800396118,2.3304308306518546 84.03819860396118,3.286354230651856 L73.42163220396118,21.624059830651856 zM6.284216403961182,41.284281730651855 L6.284216403961182,61.284281730651855 C6.284216403961182,61.25672693065185 6.291189303961181,61.36132113065186 6.322139403961181,61.57797133065185 C6.386754503961182,62.03027693065185 6.508635703961181,62.55842903065185 6.703949603961181,63.14437063065185 C7.2941892039611815,64.91508943065186 8.377655403961182,66.72086643065185 10.11264350396118,68.45585463065186 C15.52956640396118,73.87277743065185 25.76407920396118,77.28428173065186 42.28421640396118,77.28428173065186 C58.804353603961175,77.28428173065186 69.03886640396118,73.87277743065185 74.45578930396118,68.45585463065186 C76.19077740396118,66.72086643065185 77.27424360396118,64.91508943065186 77.86448320396119,63.14437063065185 C78.05979710396119,62.55842903065185 78.18167830396118,62.03027693065185 78.24629340396118,61.57797133065185 C78.27724350396119,61.36132113065186 78.28421640396118,61.25672693065185 78.28421640396118,61.284281730651855 L78.28421640396118,41.284281730651855 C78.28421640396118,41.172728630651854 78.27028720396117,40.85932113065186 78.22410950396119,40.37445563065186 C78.14160860396119,39.508195530651854 77.99082840396119,38.528124830651855 77.75446820396118,37.464503530651854 C77.07456700396118,34.404948330651855 75.85052880396118,31.344852930651854 73.95601520396119,28.503082530651852 C68.47214490396118,20.277277030651856 58.486154303961186,15.284281730651855 42.28421640396118,15.284281730651855 C26.082278503961184,15.284281730651855 16.096287903961183,20.277277030651856 10.61241760396118,28.503082530651852 C8.71790400396118,31.344852930651854 7.493865803961182,34.404948330651855 6.813964603961182,37.464503530651854 C6.577604403961182,38.528124830651855 6.426824203961182,39.508195530651854 6.344323303961181,40.37445563065186 C6.298145603961181,40.85932113065186 6.284216403961182,41.284281730651855 6.284216403961182,41.284281730651855 z" id="svg_4"/></g></g></svg>